<?xml version="1.0" encoding="UTF-8"?>
<svg xmlns="http://www.w3.org/2000/svg" xmlns:xlink="http://www.w3.org/1999/xlink" width="200pt" height="137pt" viewBox="0 0 200 137" version="1.1">
<defs>
<filter id="alpha" filterUnits="objectBoundingBox" x="0%" y="0%" width="100%" height="100%">
  <feColorMatrix type="matrix" in="SourceGraphic" values="0 0 0 0 1 0 0 0 0 1 0 0 0 0 1 0 0 0 1 0"/>
</filter>
<mask id="mask0">
  <g filter="url(#alpha)">
<rect x="0" y="0" width="200" height="137" style="fill:rgb(0%,0%,0%);fill-opacity:0.101961;stroke:none;"/>
  </g>
</mask>
<clipPath id="clip1">
  <rect x="0" y="0" width="200" height="137"/>
</clipPath>
<g id="surface5" clip-path="url(#clip1)">
<path style=" stroke:none;fill-rule:nonzero;fill:rgb(0%,0%,0%);fill-opacity:1;" d="M 161.890625 73.855469 C 161.722656 74.226562 161.550781 74.597656 161.375 74.960938 C 160.359375 75.070312 159.292969 75.152344 158.175781 75.203125 C 157.25 75.242188 156.292969 75.265625 155.320312 75.265625 C 146.808594 75.265625 136.5625 73.6875 126.097656 70.75 C 114.4375 67.472656 103.886719 62.890625 96.386719 57.84375 C 96.132812 57.671875 95.882812 57.5 95.636719 57.328125 C 95.660156 56.925781 95.695312 56.523438 95.734375 56.125 C 96.132812 56.410156 96.542969 56.695312 96.964844 56.980469 C 104.375 61.964844 114.820312 66.5 126.378906 69.746094 C 136.753906 72.664062 146.898438 74.222656 155.316406 74.222656 C 156.277344 74.222656 157.214844 74.203125 158.128906 74.164062 C 159.457031 74.101562 160.710938 74 161.890625 73.855469 Z M 161.890625 73.855469 "/>
</g>
<mask id="mask1">
  <g filter="url(#alpha)">
<rect x="0" y="0" width="200" height="137" style="fill:rgb(0%,0%,0%);fill-opacity:0.101961;stroke:none;"/>
  </g>
</mask>
<clipPath id="clip2">
  <rect x="0" y="0" width="200" height="137"/>
</clipPath>
<g id="surface8" clip-path="url(#clip2)">
<path style=" stroke:none;fill-rule:nonzero;fill:rgb(0%,0%,0%);fill-opacity:1;" d="M 35.785156 29.652344 C 35.785156 29.652344 34.960938 34.300781 37.125 34.609375 C 39.289062 34.921875 41.453125 35.851562 41.554688 36.46875 C 41.660156 37.089844 33.105469 43.699219 33.105469 43.699219 L 27.851562 42.046875 C 27.851562 42.046875 22.59375 40.703125 22.800781 39.671875 C 23.007812 38.636719 23.417969 37.191406 23.417969 37.191406 C 23.417969 37.191406 29.394531 35.953125 29.5 34.09375 C 29.601562 32.234375 30.324219 29.238281 30.324219 29.238281 Z M 35.785156 29.652344 "/>
</g>
<mask id="mask2">
  <g filter="url(#alpha)">
<rect x="0" y="0" width="200" height="137" style="fill:rgb(0%,0%,0%);fill-opacity:0.101961;stroke:none;"/>
  </g>
</mask>
<clipPath id="clip3">
  <rect x="0" y="0" width="200" height="137"/>
</clipPath>
<g id="surface11" clip-path="url(#clip3)">
<path style=" stroke:none;fill-rule:nonzero;fill:rgb(0%,0%,0%);fill-opacity:1;" d="M 32.234375 62.058594 C 32.492188 62.414062 33.609375 63.882812 34.960938 64.875 C 36.507812 66.011719 40.113281 63.324219 40.113281 63.324219 C 40.113281 63.324219 45.722656 49.863281 46.4375 42.730469 C 46.046875 41.546875 45.585938 40.386719 45.058594 39.257812 L 46.246094 44.0625 C 46.246094 44.0625 40.9375 48.347656 39.804688 50.105469 C 38.671875 51.859375 39.703125 57.746094 39.804688 58.675781 C 39.90625 59.605469 37.742188 59.917969 36.710938 59.8125 C 35.683594 59.710938 35.476562 60.640625 34.546875 60.640625 C 34.101562 60.640625 33.125 61.339844 32.234375 62.058594 Z M 32.234375 62.058594 "/>
</g>
<mask id="mask3">
  <g filter="url(#alpha)">
<rect x="0" y="0" width="200" height="137" style="fill:rgb(0%,0%,0%);fill-opacity:0.101961;stroke:none;"/>
  </g>
</mask>
<clipPath id="clip4">
  <rect x="0" y="0" width="200" height="137"/>
</clipPath>
<g id="surface14" clip-path="url(#clip4)">
<path style=" stroke:none;fill-rule:nonzero;fill:rgb(0%,0%,0%);fill-opacity:1;" d="M 18.921875 46.773438 C 19.109375 47.011719 19.339844 47.304688 19.589844 47.628906 L 18.988281 46.386719 C 18.988281 46.386719 18.964844 46.527344 18.921875 46.773438 Z M 18.921875 46.773438 "/>
</g>
<mask id="mask4">
  <g filter="url(#alpha)">
<rect x="0" y="0" width="200" height="137" style="fill:rgb(0%,0%,0%);fill-opacity:0.101961;stroke:none;"/>
  </g>
</mask>
<clipPath id="clip5">
  <rect x="0" y="0" width="200" height="137"/>
</clipPath>
<g id="surface17" clip-path="url(#clip5)">
<path style=" stroke:none;fill-rule:nonzero;fill:rgb(0%,0%,0%);fill-opacity:1;" d="M 18.371094 62.085938 C 18.476562 62.402344 19.703125 61.75 20.886719 61.039062 C 20.875 60.976562 20.859375 60.910156 20.84375 60.847656 C 20.535156 59.605469 22.699219 56.613281 22.699219 56.613281 L 24.140625 52.6875 L 23.832031 47.417969 L 19.855469 47.972656 C 20.996094 49.46875 22.441406 51.429688 22.800781 52.273438 C 23.417969 53.71875 22.183594 55.890625 20.738281 55.785156 C 19.296875 55.683594 18.164062 61.464844 18.371094 62.085938 Z M 18.371094 62.085938 "/>
</g>
</defs>
<g id="surface1">
<path style=" stroke:none;fill-rule:nonzero;fill:rgb(24.705882%,23.921569%,33.72549%);fill-opacity:1;" d="M 199.582031 77.214844 C 198.6875 84.886719 196.832031 91.046875 194.285156 95.960938 C 190.894531 102.503906 185.09375 105.140625 179.914062 107.902344 C 178.417969 108.695312 176.863281 109.375 175.261719 109.929688 C 165.832031 113.210938 155.285156 112.339844 146.996094 110.609375 C 141.183594 109.390625 135.285156 108.644531 129.351562 108.371094 C 127.660156 108.296875 125.964844 108.257812 124.269531 108.257812 C 121.65625 108.261719 74.59375 109.15625 63.132812 85.902344 C 60.304688 80.164062 58.367188 73.160156 57.667969 64.617188 C 55.695312 40.46875 66.53125 24.609375 80.507812 14.242188 C 106.949219 -5.367188 143.1875 -4.542969 169.234375 15.582031 C 186.585938 28.988281 202.832031 49.277344 199.582031 77.214844 Z M 199.582031 77.214844 "/>
<path style=" stroke:none;fill-rule:nonzero;fill:rgb(94.901961%,94.901961%,94.901961%);fill-opacity:1;" d="M 165.640625 55.488281 C 158.304688 49.992188 146.816406 44.792969 134.121094 41.226562 C 122.5625 37.980469 111.289062 36.410156 102.375 36.8125 L 102.328125 35.773438 C 111.347656 35.367188 122.738281 36.949219 134.402344 40.222656 C 147.214844 43.824219 158.828125 49.082031 166.261719 54.652344 Z M 165.640625 55.488281 "/>
<path style=" stroke:none;fill-rule:nonzero;fill:rgb(42.352941%,38.823529%,100%);fill-opacity:1;" d="M 164.878906 59.71875 C 164.882812 64.589844 163.867188 69.40625 161.890625 73.855469 C 161.722656 74.226562 161.550781 74.597656 161.375 74.960938 C 155.558594 86.898438 143.46875 94.46875 130.214844 94.464844 C 111.074219 94.464844 95.554688 78.910156 95.554688 59.71875 C 95.554688 58.917969 95.582031 58.117188 95.636719 57.328125 C 95.660156 56.925781 95.695312 56.523438 95.734375 56.125 C 97.53125 38.625 112.285156 24.976562 130.214844 24.976562 C 149.359375 24.976562 164.878906 40.53125 164.878906 59.71875 Z M 164.878906 59.71875 "/>
<use xlink:href="#surface5" mask="url(#mask0)"/>
<path style=" stroke:none;fill-rule:nonzero;fill:rgb(94.901961%,94.901961%,94.901961%);fill-opacity:1;" d="M 155.320312 74.433594 C 146.808594 74.433594 136.5625 72.855469 126.097656 69.917969 C 114.4375 66.640625 103.886719 62.058594 96.386719 57.011719 C 88.734375 51.859375 85.144531 46.785156 86.28125 42.71875 C 87.417969 38.652344 93.117188 36.183594 102.328125 35.773438 L 102.375 36.8125 C 98.074219 37.003906 94.566406 37.644531 91.957031 38.714844 C 89.351562 39.785156 87.777344 41.222656 87.28125 43 C 86.785156 44.773438 87.382812 46.824219 89.054688 49.09375 C 90.730469 51.367188 93.390625 53.742188 96.964844 56.148438 C 104.375 61.132812 114.820312 65.667969 126.378906 68.914062 C 136.753906 71.828125 146.898438 73.390625 155.316406 73.390625 C 156.277344 73.390625 157.214844 73.371094 158.128906 73.332031 C 162.429688 73.136719 165.933594 72.496094 168.546875 71.425781 C 171.152344 70.359375 172.722656 68.917969 173.21875 67.144531 C 174.109375 63.957031 171.417969 59.816406 165.640625 55.488281 L 166.261719 54.652344 C 169.234375 56.882812 171.4375 59.078125 172.804688 61.183594 C 174.269531 63.4375 174.746094 65.539062 174.21875 67.421875 C 173.082031 71.488281 167.382812 73.957031 158.175781 74.371094 C 157.246094 74.410156 156.292969 74.433594 155.320312 74.433594 Z M 155.320312 74.433594 "/>
<path style=" stroke:none;fill-rule:nonzero;fill:rgb(94.901961%,94.901961%,94.901961%);fill-opacity:1;" d="M 131.53125 18.3125 C 131.53125 18.53125 131.351562 18.710938 131.132812 18.710938 C 130.914062 18.710938 130.734375 18.53125 130.734375 18.3125 C 130.734375 18.09375 130.914062 17.914062 131.132812 17.914062 C 131.351562 17.914062 131.53125 18.09375 131.53125 18.3125 Z M 131.53125 18.3125 "/>
<path style=" stroke:none;fill-rule:nonzero;fill:rgb(94.901961%,94.901961%,94.901961%);fill-opacity:1;" d="M 78.835938 35.300781 C 78.835938 35.519531 78.65625 35.699219 78.4375 35.699219 C 78.21875 35.699219 78.042969 35.519531 78.042969 35.300781 C 78.042969 35.082031 78.21875 34.902344 78.4375 34.902344 C 78.65625 34.902344 78.835938 35.082031 78.835938 35.300781 Z M 78.835938 35.300781 "/>
<path style=" stroke:none;fill-rule:nonzero;fill:rgb(94.901961%,94.901961%,94.901961%);fill-opacity:1;" d="M 77.378906 62.109375 C 77.378906 62.328125 77.203125 62.507812 76.980469 62.507812 C 76.761719 62.507812 76.585938 62.328125 76.585938 62.109375 C 76.585938 61.890625 76.761719 61.710938 76.980469 61.710938 C 77.203125 61.710938 77.378906 61.890625 77.378906 62.109375 Z M 77.378906 62.109375 "/>
<path style=" stroke:none;fill-rule:nonzero;fill:rgb(94.901961%,94.901961%,94.901961%);fill-opacity:1;" d="M 158.273438 20.699219 C 158.273438 20.847656 158.15625 20.964844 158.007812 20.964844 C 157.863281 20.964844 157.746094 20.847656 157.746094 20.699219 C 157.746094 20.554688 157.863281 20.433594 158.007812 20.433594 C 158.15625 20.433594 158.273438 20.554688 158.273438 20.699219 Z M 158.273438 20.699219 "/>
<path style=" stroke:none;fill-rule:nonzero;fill:rgb(94.901961%,94.901961%,94.901961%);fill-opacity:1;" d="M 190.183594 58.128906 C 190.183594 58.273438 190.0625 58.394531 189.917969 58.394531 C 189.769531 58.394531 189.652344 58.273438 189.652344 58.128906 C 189.652344 57.980469 189.769531 57.863281 189.917969 57.863281 C 190.0625 57.863281 190.183594 57.980469 190.183594 58.128906 Z M 190.183594 58.128906 "/>
<path style=" stroke:none;fill-rule:nonzero;fill:rgb(94.901961%,94.901961%,94.901961%);fill-opacity:1;" d="M 175.617188 45.917969 C 175.617188 46.066406 175.5 46.183594 175.355469 46.183594 C 175.207031 46.183594 175.089844 46.066406 175.089844 45.917969 C 175.089844 45.773438 175.207031 45.652344 175.355469 45.652344 C 175.5 45.652344 175.617188 45.773438 175.617188 45.917969 Z M 175.617188 45.917969 "/>
<path style=" stroke:none;fill-rule:nonzero;fill:rgb(94.901961%,94.901961%,94.901961%);fill-opacity:1;" d="M 102.667969 26.671875 C 102.667969 26.820312 102.546875 26.9375 102.402344 26.9375 C 102.257812 26.9375 102.136719 26.820312 102.136719 26.671875 C 102.136719 26.527344 102.257812 26.40625 102.402344 26.40625 C 102.546875 26.40625 102.667969 26.527344 102.667969 26.671875 Z M 102.667969 26.671875 "/>
<path style=" stroke:none;fill-rule:nonzero;fill:rgb(94.901961%,94.901961%,94.901961%);fill-opacity:1;" d="M 174.691406 54.542969 C 174.691406 54.691406 174.574219 54.808594 174.425781 54.808594 C 174.28125 54.808594 174.160156 54.691406 174.160156 54.542969 C 174.160156 54.398438 174.28125 54.28125 174.425781 54.28125 C 174.574219 54.28125 174.691406 54.398438 174.691406 54.542969 Z M 174.691406 54.542969 "/>
<path style=" stroke:none;fill-rule:nonzero;fill:rgb(94.901961%,94.901961%,94.901961%);fill-opacity:1;" d="M 80.425781 81.21875 C 80.425781 81.367188 80.304688 81.484375 80.160156 81.484375 C 80.011719 81.484375 79.894531 81.367188 79.894531 81.21875 C 79.894531 81.074219 80.011719 80.953125 80.160156 80.953125 C 80.304688 80.953125 80.425781 81.074219 80.425781 81.21875 Z M 80.425781 81.21875 "/>
<path style=" stroke:none;fill-rule:nonzero;fill:rgb(94.901961%,94.901961%,94.901961%);fill-opacity:1;" d="M 96.179688 92.101562 C 96.179688 92.25 96.0625 92.367188 95.914062 92.367188 C 95.769531 92.367188 95.648438 92.25 95.648438 92.101562 C 95.648438 91.957031 95.769531 91.835938 95.914062 91.835938 C 96.0625 91.835938 96.179688 91.957031 96.179688 92.101562 Z M 96.179688 92.101562 "/>
<path style=" stroke:none;fill-rule:nonzero;fill:rgb(94.901961%,94.901961%,94.901961%);fill-opacity:1;" d="M 118.820312 7.199219 L 118.453125 7.199219 L 118.453125 6.832031 L 118.257812 6.832031 L 118.257812 7.199219 L 117.894531 7.199219 L 117.894531 7.394531 L 118.257812 7.394531 L 118.257812 7.761719 L 118.453125 7.761719 L 118.453125 7.394531 L 118.820312 7.394531 Z M 118.820312 7.199219 "/>
<path style=" stroke:none;fill-rule:nonzero;fill:rgb(94.901961%,94.901961%,94.901961%);fill-opacity:1;" d="M 158.273438 97.441406 L 157.910156 97.441406 L 157.910156 97.078125 L 157.714844 97.078125 L 157.714844 97.441406 L 157.347656 97.441406 L 157.347656 97.640625 L 157.714844 97.640625 L 157.714844 98.003906 L 157.910156 98.003906 L 157.910156 97.640625 L 158.273438 97.640625 Z M 158.273438 97.441406 "/>
<path style=" stroke:none;fill-rule:nonzero;fill:rgb(94.901961%,94.901961%,94.901961%);fill-opacity:1;" d="M 182.769531 92 L 182.402344 92 L 182.402344 91.636719 L 182.207031 91.636719 L 182.207031 92 L 181.839844 92 L 181.839844 92.199219 L 182.207031 92.199219 L 182.207031 92.5625 L 182.402344 92.5625 L 182.402344 92.199219 L 182.769531 92.199219 Z M 182.769531 92 "/>
<path style=" stroke:none;fill-rule:nonzero;fill:rgb(24.705882%,23.921569%,33.72549%);fill-opacity:1;" d="M 133.648438 32.515625 C 133.648438 34.128906 132.34375 35.433594 130.734375 35.433594 C 129.125 35.433594 127.824219 34.128906 127.824219 32.515625 C 127.824219 30.902344 129.125 29.59375 130.734375 29.59375 C 132.34375 29.59375 133.648438 30.902344 133.648438 32.515625 Z M 133.648438 32.515625 "/>
<path style=" stroke:none;fill-rule:nonzero;fill:rgb(24.705882%,23.921569%,33.72549%);fill-opacity:1;" d="M 111.273438 53.882812 C 111.273438 55.492188 109.96875 56.800781 108.359375 56.800781 C 106.75 56.800781 105.449219 55.492188 105.449219 53.882812 C 105.449219 52.269531 106.75 50.960938 108.359375 50.960938 C 109.96875 50.960938 111.273438 52.269531 111.273438 53.882812 Z M 111.273438 53.882812 "/>
<path style=" stroke:none;fill-rule:nonzero;fill:rgb(24.705882%,23.921569%,33.72549%);fill-opacity:1;" d="M 143.445312 83.210938 C 143.445312 84.824219 142.140625 86.128906 140.53125 86.128906 C 138.925781 86.128906 137.621094 84.824219 137.621094 83.210938 C 137.621094 81.597656 138.925781 80.289062 140.53125 80.289062 C 142.140625 80.289062 143.445312 81.597656 143.445312 83.210938 Z M 143.445312 83.210938 "/>
<path style=" stroke:none;fill-rule:nonzero;fill:rgb(24.705882%,23.921569%,33.72549%);fill-opacity:1;" d="M 133.648438 58.394531 C 133.648438 60.007812 132.34375 61.3125 130.734375 61.3125 C 129.125 61.3125 127.824219 60.007812 127.824219 58.394531 C 127.824219 56.78125 129.125 55.472656 130.734375 55.472656 C 132.34375 55.472656 133.648438 56.78125 133.648438 58.394531 Z M 133.648438 58.394531 "/>
<path style=" stroke:none;fill-rule:nonzero;fill:rgb(24.705882%,23.921569%,33.72549%);fill-opacity:1;" d="M 112.730469 74.453125 C 112.730469 76.0625 111.425781 77.371094 109.816406 77.371094 C 108.207031 77.371094 106.902344 76.0625 106.902344 74.453125 C 106.902344 72.839844 108.207031 71.53125 109.816406 71.53125 C 111.425781 71.53125 112.730469 72.839844 112.730469 74.453125 Z M 112.730469 74.453125 "/>
<path style=" stroke:none;fill-rule:nonzero;fill:rgb(24.705882%,23.921569%,33.72549%);fill-opacity:1;" d="M 149.269531 42.734375 C 149.269531 44.347656 147.96875 45.652344 146.359375 45.652344 C 144.75 45.652344 143.445312 44.347656 143.445312 42.734375 C 143.445312 41.121094 144.75 39.8125 146.359375 39.8125 C 147.96875 39.8125 149.269531 41.121094 149.269531 42.734375 Z M 149.269531 42.734375 "/>
<path style=" stroke:none;fill-rule:nonzero;fill:rgb(24.705882%,23.921569%,33.72549%);fill-opacity:1;" d="M 158.9375 62.507812 C 158.9375 64.121094 157.632812 65.425781 156.023438 65.425781 C 154.414062 65.425781 153.109375 64.121094 153.109375 62.507812 C 153.109375 60.894531 154.414062 59.585938 156.023438 59.585938 C 157.632812 59.585938 158.9375 60.894531 158.9375 62.507812 Z M 158.9375 62.507812 "/>
<path style=" stroke:none;fill-rule:nonzero;fill:rgb(100%,100%,100%);fill-opacity:1;" d="M 134.574219 45.652344 C 134.574219 47.777344 132.855469 49.5 130.734375 49.5 C 128.613281 49.5 126.894531 47.777344 126.894531 45.652344 C 126.894531 43.527344 128.613281 41.804688 130.734375 41.804688 C 132.855469 41.804688 134.574219 43.527344 134.574219 45.652344 Z M 134.574219 45.652344 "/>
<path style=" stroke:none;fill-rule:nonzero;fill:rgb(100%,39.607843%,51.764706%);fill-opacity:1;" d="M 130.734375 40.078125 C 127.738281 40.078125 125.308594 42.515625 125.308594 45.519531 C 125.308594 48.527344 130.734375 58.394531 130.734375 58.394531 C 130.734375 58.394531 136.164062 48.527344 136.164062 45.519531 C 136.164062 42.515625 133.734375 40.078125 130.734375 40.078125 Z M 130.734375 48.175781 C 129.347656 48.175781 128.21875 47.046875 128.21875 45.652344 C 128.21875 44.261719 129.347656 43.132812 130.734375 43.132812 C 132.125 43.132812 133.25 44.261719 133.25 45.652344 C 133.25 47.046875 132.125 48.175781 130.734375 48.175781 Z M 130.734375 48.175781 "/>
<path style=" stroke:none;fill-rule:nonzero;fill:rgb(100%,100%,100%);fill-opacity:1;" d="M 113.65625 62.109375 C 113.65625 64.234375 111.9375 65.957031 109.816406 65.957031 C 107.695312 65.957031 105.976562 64.234375 105.976562 62.109375 C 105.976562 59.984375 107.695312 58.261719 109.816406 58.261719 C 111.9375 58.261719 113.65625 59.984375 113.65625 62.109375 Z M 113.65625 62.109375 "/>
<path style=" stroke:none;fill-rule:nonzero;fill:rgb(100%,39.607843%,51.764706%);fill-opacity:1;" d="M 109.816406 56.535156 C 106.820312 56.535156 104.386719 58.972656 104.386719 61.976562 C 104.386719 64.980469 109.816406 74.851562 109.816406 74.851562 C 109.816406 74.851562 115.246094 64.980469 115.246094 61.976562 C 115.246094 58.972656 112.816406 56.535156 109.816406 56.535156 Z M 109.816406 64.632812 C 108.425781 64.632812 107.300781 63.503906 107.300781 62.109375 C 107.300781 60.714844 108.425781 59.585938 109.816406 59.585938 C 111.207031 59.585938 112.332031 60.714844 112.332031 62.109375 C 112.332031 63.503906 111.207031 64.632812 109.816406 64.632812 Z M 109.816406 64.632812 "/>
<path style=" stroke:none;fill-rule:nonzero;fill:rgb(100%,100%,100%);fill-opacity:1;" d="M 159.863281 50.164062 C 159.863281 52.289062 158.144531 54.015625 156.023438 54.015625 C 153.902344 54.015625 152.183594 52.289062 152.183594 50.164062 C 152.183594 48.039062 153.902344 46.316406 156.023438 46.316406 C 158.144531 46.316406 159.863281 48.039062 159.863281 50.164062 Z M 159.863281 50.164062 "/>
<path style=" stroke:none;fill-rule:nonzero;fill:rgb(100%,39.607843%,51.764706%);fill-opacity:1;" d="M 156.023438 44.589844 C 153.027344 44.589844 150.59375 47.027344 150.59375 50.03125 C 150.59375 53.039062 156.023438 62.90625 156.023438 62.90625 C 156.023438 62.90625 161.453125 53.039062 161.453125 50.03125 C 161.453125 47.027344 159.023438 44.589844 156.023438 44.589844 Z M 156.023438 52.6875 C 154.632812 52.6875 153.507812 51.558594 153.507812 50.164062 C 153.507812 48.773438 154.632812 47.644531 156.023438 47.644531 C 157.414062 47.644531 158.539062 48.773438 158.539062 50.164062 C 158.539062 51.558594 157.414062 52.6875 156.023438 52.6875 Z M 156.023438 52.6875 "/>
<path style=" stroke:none;fill-rule:nonzero;fill:rgb(100%,100%,100%);fill-opacity:1;" d="M 134.574219 19.773438 C 134.574219 21.898438 132.855469 23.621094 130.734375 23.621094 C 128.613281 23.621094 126.894531 21.898438 126.894531 19.773438 C 126.894531 17.648438 128.613281 15.925781 130.734375 15.925781 C 132.855469 15.925781 134.574219 17.648438 134.574219 19.773438 Z M 134.574219 19.773438 "/>
<path style=" stroke:none;fill-rule:nonzero;fill:rgb(100%,39.607843%,51.764706%);fill-opacity:1;" d="M 130.734375 14.199219 C 127.738281 14.199219 125.308594 16.636719 125.308594 19.640625 C 125.308594 22.648438 130.734375 32.515625 130.734375 32.515625 C 130.734375 32.515625 136.164062 22.648438 136.164062 19.640625 C 136.164062 16.636719 133.734375 14.199219 130.734375 14.199219 Z M 130.734375 22.296875 C 129.347656 22.296875 128.21875 21.167969 128.21875 19.773438 C 128.21875 18.382812 129.347656 17.253906 130.734375 17.253906 C 132.125 17.253906 133.25 18.382812 133.25 19.773438 C 133.25 21.167969 132.125 22.296875 130.734375 22.296875 Z M 130.734375 22.296875 "/>
<path style=" stroke:none;fill-rule:nonzero;fill:rgb(100%,100%,100%);fill-opacity:1;" d="M 144.371094 70.867188 C 144.371094 72.992188 142.652344 74.71875 140.53125 74.71875 C 138.414062 74.71875 136.695312 72.992188 136.695312 70.867188 C 136.695312 68.742188 138.414062 67.019531 140.53125 67.019531 C 142.652344 67.019531 144.371094 68.742188 144.371094 70.867188 Z M 144.371094 70.867188 "/>
<path style=" stroke:none;fill-rule:nonzero;fill:rgb(100%,39.607843%,51.764706%);fill-opacity:1;" d="M 140.53125 65.292969 C 137.535156 65.292969 135.105469 67.730469 135.105469 70.734375 C 135.105469 73.742188 140.53125 83.609375 140.53125 83.609375 C 140.53125 83.609375 145.960938 73.742188 145.960938 70.734375 C 145.960938 67.730469 143.53125 65.292969 140.53125 65.292969 Z M 140.53125 73.390625 C 139.144531 73.390625 138.015625 72.261719 138.015625 70.867188 C 138.015625 69.476562 139.144531 68.347656 140.53125 68.347656 C 141.921875 68.347656 143.046875 69.476562 143.046875 70.867188 C 143.046875 72.261719 141.921875 73.390625 140.53125 73.390625 Z M 140.53125 73.390625 "/>
<path style=" stroke:none;fill-rule:nonzero;fill:rgb(100%,100%,100%);fill-opacity:1;" d="M 112.199219 41.273438 C 112.199219 43.398438 110.480469 45.121094 108.359375 45.121094 C 106.238281 45.121094 104.519531 43.398438 104.519531 41.273438 C 104.519531 39.148438 106.238281 37.425781 108.359375 37.425781 C 110.480469 37.425781 112.199219 39.148438 112.199219 41.273438 Z M 112.199219 41.273438 "/>
<path style=" stroke:none;fill-rule:nonzero;fill:rgb(100%,39.607843%,51.764706%);fill-opacity:1;" d="M 108.359375 35.699219 C 105.363281 35.699219 102.933594 38.136719 102.933594 41.140625 C 102.933594 44.144531 108.359375 54.015625 108.359375 54.015625 C 108.359375 54.015625 113.789062 44.144531 113.789062 41.140625 C 113.789062 38.136719 111.359375 35.699219 108.359375 35.699219 Z M 108.359375 43.796875 C 106.972656 43.796875 105.84375 42.667969 105.84375 41.273438 C 105.84375 39.882812 106.972656 38.753906 108.359375 38.753906 C 109.75 38.753906 110.875 39.882812 110.875 41.273438 C 110.875 42.667969 109.75 43.796875 108.359375 43.796875 Z M 108.359375 43.796875 "/>
<path style=" stroke:none;fill-rule:nonzero;fill:rgb(100%,100%,100%);fill-opacity:1;" d="M 150.199219 30.523438 C 150.199219 32.648438 148.480469 34.371094 146.359375 34.371094 C 144.238281 34.371094 142.519531 32.648438 142.519531 30.523438 C 142.519531 28.398438 144.238281 26.675781 146.359375 26.675781 C 148.480469 26.675781 150.199219 28.398438 150.199219 30.523438 Z M 150.199219 30.523438 "/>
<path style=" stroke:none;fill-rule:nonzero;fill:rgb(100%,39.607843%,51.764706%);fill-opacity:1;" d="M 146.359375 24.949219 C 143.359375 24.949219 140.929688 27.386719 140.929688 30.390625 C 140.929688 33.394531 146.359375 43.265625 146.359375 43.265625 C 146.359375 43.265625 151.785156 33.394531 151.785156 30.390625 C 151.785156 27.386719 149.355469 24.949219 146.359375 24.949219 Z M 146.359375 33.046875 C 144.96875 33.046875 143.84375 31.917969 143.84375 30.523438 C 143.84375 29.132812 144.96875 28.003906 146.359375 28.003906 C 147.746094 28.003906 148.875 29.132812 148.875 30.523438 C 148.875 31.917969 147.746094 33.046875 146.359375 33.046875 Z M 146.359375 33.046875 "/>
<path style=" stroke:none;fill-rule:nonzero;fill:rgb(24.705882%,23.921569%,33.72549%);fill-opacity:1;" d="M 73 133.511719 C 73 135.398438 56.65625 136.929688 36.5 136.929688 C 16.339844 136.929688 0 135.398438 0 133.511719 C 0 131.625 15.023438 127.390625 35.183594 127.390625 C 55.339844 127.390625 73 131.625 73 133.511719 Z M 73 133.511719 "/>
<path style=" stroke:none;fill-rule:nonzero;fill:rgb(18.431373%,18.039216%,25.490196%);fill-opacity:1;" d="M 24.167969 22.652344 L 38.492188 22.652344 L 38.492188 34.539062 L 24.167969 34.539062 Z M 24.167969 22.652344 "/>
<path style=" stroke:none;fill-rule:nonzero;fill:rgb(62.745098%,38.039216%,41.568627%);fill-opacity:1;" d="M 48.769531 122.101562 L 50.007812 126.851562 L 46.707031 127.367188 L 45.164062 122.410156 Z M 48.769531 122.101562 "/>
<path style=" stroke:none;fill-rule:nonzero;fill:rgb(62.745098%,38.039216%,41.568627%);fill-opacity:1;" d="M 25.378906 121.378906 L 25.378906 126.4375 L 21.875 126.4375 L 22.390625 121.378906 Z M 25.378906 121.378906 "/>
<path style=" stroke:none;fill-rule:nonzero;fill:rgb(18.431373%,18.039216%,25.490196%);fill-opacity:1;" d="M 46.089844 126.4375 C 46.089844 126.4375 48.5625 125.300781 50.007812 126.4375 C 51.449219 127.574219 52.171875 130.15625 52.171875 130.15625 C 52.171875 130.15625 55.878906 134.910156 51.550781 134.703125 C 47.222656 134.496094 47.019531 133.980469 47.019531 133.253906 C 47.019531 132.53125 47.222656 131.707031 46.503906 131.398438 C 45.78125 131.085938 45.472656 129.640625 45.679688 129.226562 C 45.882812 128.8125 46.089844 126.4375 46.089844 126.4375 Z M 46.089844 126.4375 "/>
<path style=" stroke:none;fill-rule:nonzero;fill:rgb(18.431373%,18.039216%,25.490196%);fill-opacity:1;" d="M 25.996094 125.613281 C 25.996094 125.613281 22.59375 123.429688 21.875 125.140625 C 21.152344 126.851562 20.121094 129.019531 20.121094 129.019531 C 20.121094 129.019531 17.238281 133.566406 20.84375 133.667969 C 24.449219 133.773438 25.066406 133.253906 25.378906 132.328125 C 25.6875 131.398438 25.378906 130.671875 25.996094 130.671875 C 26.613281 130.671875 26.921875 129.332031 26.613281 128.710938 C 26.304688 128.089844 25.996094 125.613281 25.996094 125.613281 Z M 25.996094 125.613281 "/>
<path style=" stroke:none;fill-rule:nonzero;fill:rgb(62.745098%,38.039216%,41.568627%);fill-opacity:1;" d="M 35.785156 29.652344 C 35.785156 29.652344 34.960938 34.300781 37.125 34.609375 C 39.289062 34.921875 41.453125 35.851562 41.554688 36.46875 C 41.660156 37.089844 33.105469 43.699219 33.105469 43.699219 L 27.851562 42.046875 C 27.851562 42.046875 22.59375 40.703125 22.800781 39.671875 C 23.007812 38.636719 23.417969 37.191406 23.417969 37.191406 C 23.417969 37.191406 29.394531 35.953125 29.5 34.09375 C 29.601562 32.234375 30.324219 29.238281 30.324219 29.238281 Z M 35.785156 29.652344 "/>
<use xlink:href="#surface8" mask="url(#mask1)"/>
<path style=" stroke:none;fill-rule:nonzero;fill:rgb(18.431373%,18.039216%,25.490196%);fill-opacity:1;" d="M 22.183594 58.78125 C 22.183594 58.78125 25.914062 62.355469 33.324219 62.011719 C 40.730469 61.671875 40.113281 64.253906 40.113281 64.253906 L 39.804688 68.386719 C 39.804688 68.386719 43.71875 85.636719 43.203125 94.726562 C 43.203125 94.726562 43.410156 99.066406 44.855469 101.441406 C 46.296875 103.816406 50.210938 121.378906 49.59375 122.71875 C 48.976562 124.0625 44.441406 123.546875 44.441406 123.546875 C 44.441406 123.546875 40.214844 107.535156 38.15625 103.921875 C 36.09375 100.304688 35.886719 98.238281 35.886719 98.238281 L 28.882812 77.785156 L 27.953125 86.671875 C 27.953125 86.671875 28.054688 93.695312 28.054688 94.3125 C 28.054688 94.933594 27.953125 99.890625 27.542969 100.925781 C 27.128906 101.957031 25.582031 118.484375 26.511719 121.273438 C 27.4375 124.0625 21.667969 122.511719 21.667969 122.511719 C 21.667969 122.511719 19.914062 104.539062 20.429688 101.027344 C 20.945312 97.515625 19.605469 91.214844 19.605469 91.214844 C 19.605469 91.214844 15.691406 72.003906 17.855469 68.902344 C 17.855469 68.902344 19.296875 58.367188 20.019531 58.472656 Z M 22.183594 58.78125 "/>
<path style=" stroke:none;fill-rule:nonzero;fill:rgb(62.745098%,38.039216%,41.568627%);fill-opacity:1;" d="M 38.515625 26.191406 C 38.515625 29.328125 35.980469 31.871094 32.847656 31.871094 C 29.71875 31.871094 27.179688 29.328125 27.179688 26.191406 C 27.179688 23.054688 29.71875 20.511719 32.847656 20.511719 C 35.980469 20.511719 38.515625 23.054688 38.515625 26.191406 Z M 38.515625 26.191406 "/>
<path style=" stroke:none;fill-rule:nonzero;fill:rgb(42.352941%,38.823529%,100%);fill-opacity:1;" d="M 18.371094 62.085938 C 18.476562 62.402344 19.703125 61.75 20.886719 61.039062 C 22.019531 60.351562 23.109375 59.605469 23.109375 59.605469 C 24.347656 63.53125 32.179688 61.984375 32.179688 61.984375 C 32.179688 61.984375 32.199219 62.011719 32.234375 62.058594 C 32.492188 62.414062 33.609375 63.882812 34.960938 64.875 C 36.507812 66.011719 40.113281 63.324219 40.113281 63.324219 C 40.113281 63.324219 45.722656 49.863281 46.4375 42.730469 C 46.597656 41.164062 46.519531 39.898438 46.089844 39.15625 C 43.71875 35.023438 40.386719 35.542969 40.386719 35.542969 C 39.832031 36.996094 35.375 39.15625 35.375 39.15625 L 30.941406 39.980469 C 26.511719 40.808594 25.171875 36.160156 25.171875 36.160156 C 23.933594 35.953125 21.667969 38.226562 21.667969 38.226562 C 19.503906 38.84375 18.371094 46.074219 18.371094 46.074219 C 18.371094 46.074219 18.585938 46.34375 18.921875 46.773438 C 19.109375 47.011719 19.339844 47.304688 19.589844 47.628906 C 19.675781 47.738281 19.761719 47.855469 19.855469 47.972656 C 20.996094 49.46875 22.441406 51.429688 22.800781 52.273438 C 23.417969 53.71875 22.183594 55.890625 20.738281 55.785156 C 19.296875 55.683594 18.164062 61.464844 18.371094 62.085938 Z M 18.371094 62.085938 "/>
<path style=" stroke:none;fill-rule:nonzero;fill:rgb(62.745098%,38.039216%,41.568627%);fill-opacity:1;" d="M 32.898438 67.664062 C 32.898438 67.664062 28.054688 73.757812 25.894531 71.589844 C 23.730469 69.421875 32.179688 64.359375 32.179688 64.359375 Z M 32.898438 67.664062 "/>
<path style=" stroke:none;fill-rule:nonzero;fill:rgb(62.745098%,38.039216%,41.568627%);fill-opacity:1;" d="M 20.636719 65.804688 C 20.636719 65.804688 24.863281 72.210938 22.492188 72.414062 C 20.121094 72.621094 17.238281 68.179688 17.238281 68.179688 Z M 20.636719 65.804688 "/>
<path style=" stroke:none;fill-rule:nonzero;fill:rgb(18.431373%,18.039216%,25.490196%);fill-opacity:1;" d="M 20.050781 35.164062 C 20.59375 33.960938 21.324219 32.832031 21.671875 31.558594 C 22.089844 30.035156 21.925781 28.417969 21.878906 26.835938 C 21.832031 25.441406 21.882812 24.023438 22.230469 22.671875 C 22.578125 21.316406 23.246094 20.015625 24.285156 19.085938 C 26.941406 16.710938 31.796875 16.539062 35.039062 17.527344 C 36.316406 17.917969 37.679688 18.660156 37.996094 19.960938 C 38.042969 20.15625 38.066406 20.359375 38.117188 20.554688 C 38.382812 21.523438 39.371094 22.136719 39.726562 23.074219 C 40.191406 24.289062 39.480469 25.609375 39.386719 26.902344 C 39.277344 28.417969 40.019531 29.84375 40.75 31.171875 C 41.183594 31.960938 41.636719 32.804688 41.59375 33.703125 C 41.558594 34.195312 41.40625 34.671875 41.15625 35.097656 C 40.28125 36.664062 38.488281 37.613281 36.699219 37.660156 C 36.117188 37.675781 35.507812 37.59375 35.03125 37.265625 C 34.238281 36.71875 34.007812 35.621094 34.171875 34.671875 C 34.335938 33.722656 34.816406 32.863281 35.191406 31.980469 C 35.308594 31.707031 35.414062 31.429688 35.507812 31.152344 C 37.917969 29.804688 39.007812 26.910156 38.09375 24.304688 C 37.175781 21.695312 34.519531 20.125 31.796875 20.589844 C 29.078125 21.050781 27.085938 23.410156 27.078125 26.175781 C 27.070312 28.941406 29.050781 31.3125 31.769531 31.789062 C 32.054688 33.21875 31.925781 34.703125 31.398438 36.066406 C 30.960938 37.191406 30.28125 38.199219 29.605469 39.199219 C 29.28125 39.679688 28.945312 40.167969 28.464844 40.480469 C 28.160156 40.664062 27.832031 40.800781 27.488281 40.898438 C 26.058594 41.359375 24.550781 41.730469 23.0625 41.523438 C 21.574219 41.316406 20.101562 40.414062 19.59375 38.996094 C 19.148438 37.753906 19.507812 36.367188 20.050781 35.164062 Z M 20.050781 35.164062 "/>
<path style=" stroke:none;fill-rule:nonzero;fill:rgb(18.431373%,18.039216%,25.490196%);fill-opacity:1;" d="M 38.621094 22.679688 C 38.621094 20.738281 35.851562 19.167969 32.4375 19.167969 C 29.019531 19.167969 26.253906 20.738281 26.253906 22.679688 C 26.253906 24.621094 29.019531 26.191406 32.4375 26.191406 C 35.851562 26.191406 38.621094 24.621094 38.621094 22.679688 Z M 38.621094 22.679688 "/>
<use xlink:href="#surface11" mask="url(#mask2)"/>
<path style=" stroke:none;fill-rule:nonzero;fill:rgb(42.352941%,38.823529%,100%);fill-opacity:1;" d="M 44.542969 39.257812 L 46.089844 39.257812 C 46.089844 39.257812 49.902344 47.003906 49.492188 55.785156 C 49.078125 64.566406 44.855469 68.078125 40.011719 69.214844 C 35.167969 70.351562 33.003906 71.074219 32.382812 70.351562 C 31.765625 69.625 31.457031 63.636719 31.457031 63.636719 C 31.457031 63.636719 34.652344 60.640625 35.578125 60.640625 C 36.507812 60.640625 36.710938 59.710938 37.742188 59.8125 C 38.773438 59.917969 40.9375 59.605469 40.835938 58.675781 C 40.730469 57.746094 39.703125 51.859375 40.835938 50.105469 C 41.96875 48.347656 44.542969 39.257812 44.542969 39.257812 Z M 44.542969 39.257812 "/>
<use xlink:href="#surface14" mask="url(#mask3)"/>
<use xlink:href="#surface17" mask="url(#mask4)"/>
<path style=" stroke:none;fill-rule:nonzero;fill:rgb(42.352941%,38.823529%,100%);fill-opacity:1;" d="M 20.429688 44.011719 L 18.371094 46.074219 C 18.371094 46.074219 16.925781 54.441406 16.925781 54.960938 C 16.925781 55.476562 14.453125 58.78125 15.074219 61.054688 C 15.691406 63.324219 16.101562 66.320312 15.585938 66.941406 C 15.074219 67.5625 14.351562 69.316406 15.585938 70.144531 C 16.824219 70.96875 18.371094 65.390625 22.078125 66.835938 C 22.078125 66.835938 19.8125 63.222656 19.914062 62.914062 C 20.019531 62.601562 20.535156 61.777344 20.226562 60.535156 C 19.914062 59.296875 22.078125 56.300781 22.078125 56.300781 L 23.523438 52.375 L 23.214844 47.109375 Z M 20.429688 44.011719 "/>
</g>
</svg>
